# xmcd
#
# Track frame offsets:
#	150
#	13863
#	28413
#	46935
#	68116
#
# Disc length: 1100 seconds
#
# Revision: 1
# Processed by: cddbd v1.5.2PL0 Copyright (c) Steve Scherf et al.
# Submitted via: audiograbber 1.83.01
#
DISCID=3f044a05
DTITLE=Cold Shuffle - funky blues train
DYEAR=2009
DGENRE=Funky Blues
TTITLE0=in the bar
TTITLE1=swing with me
TTITLE2=funky blues train
TTITLE3=even at night
TTITLE4=bonus swing with me bap version
EXTD=Jörn Krause (v]\nTill Seidel (g]\nStefven Knauer (b]\nRobert Halagan (d)
EXTT0=
EXTT1=
EXTT2=
EXTT3=
EXTT4=
PLAYORDER=
